<?xml version="1.0" standalone="no"?><svg xmlns="http://www.w3.org/2000/svg" viewBox="0 0 1440 320"><path fill="#e7008a" fill-opacity="1" d="M0,288L40,261.3C80,235,160,181,240,170.7C320,160,400,192,480,170.7C560,149,640,75,720,90.7C800,107,880,213,960,218.7C1040,224,1120,128,1200,112C1280,96,1360,160,1400,192L1440,224L1440,320L1400,320C1360,320,1280,320,1200,320C1120,320,1040,320,960,320C880,320,800,320,720,320C640,320,560,320,480,320C400,320,320,320,240,320C160,320,80,320,40,320L0,320Z"></path></svg>